<svg width="299" height="307" viewBox="0 0 299 307" fill="none" xmlns="http://www.w3.org/2000/svg">
<g clip-path="url(#clip0)">
<path d="M244.865 84.6488C244.865 84.6488 239.261 87.8822 240.985 92.409C240.985 92.409 246.805 94.1334 249.177 98.4446C251.548 102.756 269.87 118.276 269.87 118.276L283.235 111.594C283.235 111.594 278.586 105.387 263.881 101.054C263.881 101.054 255.212 91.7622 252.194 90.0378C249.177 88.3133 244.865 84.6488 244.865 84.6488Z" fill="#CBCDDA"/>
<path opacity="0.05" d="M244.865 84.6488C244.865 84.6488 239.261 87.8822 240.985 92.409C240.985 92.409 246.805 94.1334 249.177 98.4446C251.548 102.756 269.87 118.276 269.87 118.276L283.235 111.594C283.235 111.594 278.586 105.387 263.881 101.054C263.881 101.054 255.212 91.7622 252.194 90.0378C249.177 88.3133 244.865 84.6488 244.865 84.6488Z" fill="black"/>
<path opacity="0.1" d="M51.0974 290.995C48.2197 291.707 45.2095 290.877 42.2455 290.841C39.2814 290.806 35.8234 292.052 35.0969 294.926C34.1212 298.786 38.6335 301.696 42.497 302.657C57.4923 306.39 73.3659 301.545 88.6918 303.521C95.1501 304.354 101.431 306.391 107.924 306.877C122.788 307.989 137.31 300.92 152.193 301.717C159.65 302.116 166.897 304.484 174.355 304.864C192.198 305.773 209.801 295.298 227.268 299.052C232.2 300.112 236.831 302.272 241.719 303.524C254.074 306.687 267.082 303.867 279.52 301.046C281.99 300.486 284.967 299.396 285.271 296.881C285.607 294.107 282.422 292.367 279.771 291.481C250.791 281.789 219.763 276.654 189.535 281.134C182.656 282.153 175.797 283.668 168.844 283.568C153.453 283.347 139.311 275.319 124.202 272.382C95.5734 266.818 66.9492 279.799 40.6675 292.443" fill="#FFB890"/>
<path d="M90.7767 208.749H82.0125V282.847C82.0125 282.847 138.582 301.172 193.558 282.847V208.749H90.7767Z" fill="#3F3D56"/>
<path d="M136.988 217.513C167.351 217.513 191.964 213.767 191.964 209.147C191.964 204.527 167.351 200.781 136.988 200.781C106.626 200.781 82.0127 204.527 82.0127 209.147C82.0127 213.767 106.626 217.513 136.988 217.513Z" fill="#3F3D56"/>
<path opacity="0.1" d="M136.988 217.513C167.351 217.513 191.964 213.767 191.964 209.147C191.964 204.527 167.351 200.781 136.988 200.781C106.626 200.781 82.0127 204.527 82.0127 209.147C82.0127 213.767 106.626 217.513 136.988 217.513Z" fill="black"/>
<path d="M200.894 120.219C187.026 171.485 139.523 203.236 139.523 203.236C139.523 203.236 114.505 151.867 128.374 100.6C142.242 49.3338 189.745 17.583 189.745 17.583C189.745 17.583 214.763 68.952 200.894 120.219Z" fill="#3F3D56"/>
<path d="M74.7286 120.219C88.5972 171.485 136.1 203.236 136.1 203.236C136.1 203.236 161.118 151.867 147.249 100.6C133.381 49.3338 85.8777 17.583 85.8777 17.583C85.8777 17.583 60.86 68.952 74.7286 120.219Z" fill="#FFB890"/>
<path d="M95.1077 109.201C133.163 146.246 137.812 203.194 137.812 203.194C137.812 203.194 80.7594 200.079 42.7038 163.033C4.64822 125.988 0 69.0402 0 69.0402C0 69.0402 57.0521 72.1553 95.1077 109.201Z" fill="#3F3D56"/>
<path d="M180.515 109.201C142.46 146.246 137.812 203.194 137.812 203.194C137.812 203.194 194.864 200.079 232.919 163.033C270.975 125.988 275.623 69.0402 275.623 69.0402C275.623 69.0402 218.571 72.1553 180.515 109.201Z" fill="#3F3D56"/>
<path d="M137.785 35.057C147.466 35.057 155.314 27.2093 155.314 17.5285C155.314 7.84779 147.466 0 137.785 0C128.105 0 120.257 7.84779 120.257 17.5285C120.257 27.2093 128.105 35.057 137.785 35.057Z" fill="#FFB890"/>
<path d="M32.82 141.662C34.0629 146.172 38.3809 148.916 38.3809 148.916C38.3809 148.916 40.6839 144.347 39.441 139.837C38.1982 135.327 33.8801 132.584 33.8801 132.584C33.8801 132.584 31.5771 137.152 32.82 141.662Z" fill="#FFB890"/>
<path d="M56.0833 166.779C54.7455 171.261 56.9515 175.877 56.9515 175.877C56.9515 175.877 61.3265 173.225 62.6643 168.743C64.0021 164.26 61.7961 159.644 61.7961 159.644C61.7961 159.644 57.4211 162.296 56.0833 166.779Z" fill="#FFB890"/>
<path d="M223.88 195.615C220.597 198.947 220.381 204.059 220.381 204.059C220.381 204.059 225.489 203.768 228.772 200.436C232.056 197.103 232.272 191.992 232.272 191.992C232.272 191.992 227.164 192.283 223.88 195.615Z" fill="#FFB890"/>
<path d="M279.786 268.521C279.786 268.521 280.433 278.006 281.51 279.084C282.588 280.162 271.81 280.808 271.81 280.808L273.319 268.521H279.786Z" fill="#FFB9B9"/>
<path opacity="0.05" d="M279.786 268.521C279.786 268.521 280.433 278.006 281.51 279.084C282.588 280.162 271.81 280.808 271.81 280.808L273.319 268.521H279.786Z" fill="black"/>
<path d="M282.157 275.85C282.157 275.85 280.648 275.85 275.259 278.653C275.259 278.653 271.595 278.006 270.086 272.833C270.086 272.833 265.559 280.593 262.541 281.024C259.523 281.455 253.703 281.886 257.583 287.059C261.463 292.233 284.313 289.862 284.313 289.862C284.313 289.862 284.959 277.359 282.157 275.85Z" fill="#CBCDDA"/>
<path opacity="0.05" d="M282.157 275.85C282.157 275.85 280.648 275.85 275.259 278.653C275.259 278.653 271.595 278.006 270.086 272.833C270.086 272.833 265.559 280.593 262.541 281.024C259.523 281.455 253.703 281.886 257.583 287.059C261.463 292.233 284.313 289.862 284.313 289.862C284.313 289.862 284.959 277.359 282.157 275.85Z" fill="black"/>
<path d="M278.924 283.179L277.415 287.275L267.499 284.473L268.064 280.407L268.2 279.426L268.577 276.713C268.577 276.713 276.984 274.557 276.984 275.635C277.097 276.523 277.282 277.401 277.535 278.26C277.88 279.586 278.314 281.097 278.605 282.091C278.794 282.748 278.924 283.179 278.924 283.179Z" fill="#FFB9B9"/>
<path d="M273.513 226.961C272.834 228.11 272.065 230.266 273.494 232.96C273.917 233.74 274.438 234.462 275.044 235.11C279.786 240.283 281.079 251.923 281.079 251.923V270.677L277.846 270.925L272.672 271.324L264.912 239.421C264.912 239.421 260.386 216.14 262.541 212.045C264.697 207.949 266.637 182.297 266.637 182.297L268.426 180.444L272.672 176.046H284.959C285.942 176.751 286.758 177.664 287.35 178.719C289.413 182.134 291.265 189.234 285.606 202.344C276.768 222.823 274.181 226.056 274.181 226.056C273.925 226.332 273.701 226.635 273.513 226.961Z" fill="#4C4C78"/>
<path opacity="0.05" d="M273.513 226.961C272.834 228.11 272.065 230.266 273.494 232.96C273.917 233.74 274.438 234.462 275.044 235.11C279.786 240.283 281.079 251.923 281.079 251.923V270.677L277.846 270.925L272.672 271.324L264.912 239.421C264.912 239.421 260.386 216.14 262.541 212.045C264.697 207.949 266.637 182.297 266.637 182.297L268.426 180.444L272.672 176.046H284.959C285.942 176.751 286.758 177.664 287.35 178.719C289.413 182.134 291.265 189.234 285.606 202.344C276.768 222.823 274.181 226.056 274.181 226.056C273.925 226.332 273.701 226.635 273.513 226.961Z" fill="black"/>
<path opacity="0.1" d="M277.536 278.26L268.2 279.426L268.577 276.713C268.577 276.713 276.984 274.557 276.984 275.635C277.097 276.523 277.282 277.401 277.536 278.26Z" fill="black"/>
<path d="M272.888 199.327C272.888 199.327 273.425 216.296 273.513 226.961C273.533 229.374 273.531 231.464 273.494 232.96C273.506 233.752 273.448 234.544 273.319 235.325C272.673 237.265 273.966 241.576 273.966 241.576C279.355 255.803 277.846 268.306 277.846 268.306V277.79L267.499 279.084C267.499 279.084 269.224 277.79 264.481 265.288C261.757 258.105 261.166 251.067 261.158 246.377C261.132 243.809 260.619 241.27 259.644 238.895C259.346 238.094 259.16 237.255 259.092 236.403C258.661 232.092 256.721 226.703 256.721 226.703C256.721 226.703 251.548 211.398 250.254 200.189C249.657 194.853 249.757 189.463 250.554 184.153C250.745 182.804 251.005 181.465 251.332 180.142C251.332 180.142 272.405 166.881 280.362 176.046C281.127 176.943 281.735 177.963 282.157 179.064C282.595 180.151 282.935 181.275 283.175 182.422C285.652 194.586 272.888 199.327 272.888 199.327Z" fill="#4C4C78"/>
<path d="M272.241 104.911C278.313 104.911 283.235 99.9895 283.235 93.9179C283.235 87.8463 278.313 82.9243 272.241 82.9243C266.17 82.9243 261.248 87.8463 261.248 93.9179C261.248 99.9895 266.17 104.911 272.241 104.911Z" fill="#FFB9B9"/>
<path d="M266.206 100.816C266.206 100.816 270.733 113.534 266.206 120.216C261.679 126.899 280.648 124.743 280.648 124.743L287.977 115.905C287.977 115.905 279.355 115.905 278.924 100.816C278.493 85.7266 266.206 100.816 266.206 100.816Z" fill="#FFB9B9"/>
<path opacity="0.1" d="M287.977 181.22C286.415 181.76 284.808 182.163 283.175 182.422C280.491 182.836 277.324 182.851 275.475 181.22C274.378 180.252 271.674 180.133 268.426 180.444C261.584 181.099 252.324 183.651 250.554 184.153C250.745 182.804 251.005 181.465 251.332 180.142C251.332 180.142 272.405 166.881 280.362 176.046H284.959C285.942 176.751 286.758 177.664 287.35 178.719C287.747 180.435 287.977 181.22 287.977 181.22Z" fill="black"/>
<path opacity="0.1" d="M278.924 283.179L277.415 287.275L267.499 284.473L268.064 280.407C269.767 284.175 272.672 284.688 272.672 284.688C275.807 283.059 277.628 282.377 278.605 282.091C278.794 282.748 278.924 283.179 278.924 283.179Z" fill="black"/>
<path d="M279.571 282.102C279.571 282.102 278.062 282.102 272.673 284.904C272.673 284.904 269.008 284.257 267.499 279.084C267.499 279.084 262.972 286.844 259.955 287.275C256.937 287.706 251.117 288.137 254.997 293.311C258.877 298.484 281.726 296.113 281.726 296.113C281.726 296.113 282.373 283.61 279.571 282.102Z" fill="#CBCDDA"/>
<path d="M228.43 96.0233C228.43 96.0233 228.851 87.6278 237.674 88.4495C237.921 88.4729 238.158 88.5569 238.365 88.694C238.572 88.8311 238.742 89.0171 238.859 89.2355C238.977 89.4539 239.039 89.698 239.04 89.9461C239.041 90.1942 238.98 90.4386 238.864 90.6578L237.055 94.0631L228.43 96.0233Z" fill="#FFB9B9"/>
<path d="M279.355 118.492C279.355 118.492 268.793 116.767 265.99 114.612C265.99 114.612 263.835 118.707 259.955 116.552C256.075 114.396 247.021 114.612 247.021 114.612C247.021 114.612 239.476 110.516 237.968 101.247C237.968 101.247 236.459 95.6424 236.89 94.1335C236.89 94.1335 231.285 88.3133 228.483 96.0735C229.561 101.462 230.423 101.031 230.207 105.343L233.656 114.827C233.656 114.827 233.872 118.061 240.123 122.372C246.374 126.683 253.488 133.365 253.488 133.365C253.488 133.365 249.716 135.413 251.117 144.79C252.829 156.251 250.254 172.597 250.254 172.597V183.16C250.254 183.16 271.81 176.908 275.475 180.142C279.139 183.375 287.977 180.142 287.977 180.142C287.977 180.142 286.9 176.477 285.391 167.639C283.882 158.801 285.606 150.179 285.606 150.179C285.606 150.179 291.211 135.305 293.798 129.27C296.384 123.234 291.857 115.043 287.331 112.025C282.804 109.007 281.118 110.819 281.118 110.819C281.118 110.819 289.055 116.552 279.355 118.492Z" fill="#CBCDDA"/>
<path opacity="0.1" d="M260.352 91.2294C260.348 91.6781 260.424 92.1239 260.575 92.5463C260.827 93.027 261.17 93.4538 261.586 93.8024C263.2 95.3799 264.617 97.2546 265.185 99.439C265.569 100.918 265.549 102.468 265.525 103.996C265.432 110.185 265.172 116.866 261.349 121.734C259.944 123.523 258.138 124.946 256.441 126.46C256.204 126.634 256.024 126.875 255.925 127.151C255.878 127.445 255.935 127.747 256.085 128.004C256.873 129.643 258.534 130.648 260.107 131.559C260.826 131.976 261.583 132.405 262.413 132.431C264.373 132.495 265.669 130.425 267.452 129.61C270.049 128.424 272.963 130.075 275.541 131.302C277.407 132.19 279.365 132.873 281.38 133.338C284.139 133.975 287.258 134.131 289.581 132.512C290.924 131.566 291.841 130.13 292.136 128.514C292.322 127.461 292.293 126.238 293.091 125.525C293.501 125.158 294.062 125.005 294.507 124.679C295.196 124.174 295.524 123.324 295.818 122.522L298.473 115.261C298.816 114.494 298.992 113.663 298.992 112.823C298.864 111.075 297.252 109.806 295.633 109.134C294.015 108.462 292.224 108.13 290.801 107.108C288.394 105.378 287.651 102.148 287.435 99.1922C287.286 97.1621 287.301 95.1233 287.478 93.0954C287.741 90.0881 288.329 86.886 286.991 84.1798C285.562 81.2896 282.357 79.8139 279.389 78.5548C278.249 78.0713 277.079 77.5805 275.842 77.5259C274.533 77.4682 273.259 77.9031 272.021 78.3323C270.054 79.0143 268.058 79.8975 266.028 80.36C264.887 80.6199 263.637 80.4255 262.537 80.8381C258.495 82.3541 260.352 87.9751 260.352 91.2294Z" fill="black"/>
<path d="M260.352 90.7982C260.348 91.2469 260.424 91.6927 260.575 92.1151C260.827 92.5959 261.17 93.0226 261.586 93.3712C263.2 94.9487 264.617 96.8234 265.185 99.0078C265.569 100.487 265.549 102.037 265.525 103.565C265.432 109.754 265.172 116.434 261.349 121.303C259.944 123.092 258.138 124.515 256.441 126.029C256.204 126.203 256.024 126.444 255.925 126.72C255.878 127.014 255.935 127.316 256.085 127.573C256.873 129.212 258.534 130.216 260.107 131.128C260.826 131.545 261.583 131.973 262.413 132C264.373 132.064 265.669 129.993 267.452 129.179C270.049 127.993 272.963 129.644 275.541 130.871C277.407 131.759 279.365 132.442 281.38 132.907C284.139 133.543 287.258 133.7 289.581 132.081C290.924 131.135 291.841 129.699 292.136 128.083C292.322 127.03 292.293 125.807 293.091 125.094C293.501 124.726 294.062 124.574 294.507 124.248C295.196 123.743 295.524 122.893 295.818 122.09L298.473 114.83C298.816 114.063 298.992 113.232 298.992 112.392C298.864 110.644 297.252 109.375 295.633 108.703C294.015 108.03 292.224 107.699 290.801 106.676C288.394 104.947 287.651 101.717 287.435 98.7611C287.286 96.7309 287.301 94.6921 287.478 92.6642C287.741 89.657 288.329 86.4548 286.991 83.7486C285.562 80.8584 282.357 79.3828 279.389 78.1236C278.249 77.6401 277.079 77.1494 275.842 77.0948C274.533 77.037 273.259 77.4719 272.021 77.9011C270.054 78.5832 268.058 79.4663 266.028 79.9289C264.887 80.1887 263.637 79.9943 262.537 80.4069C258.495 81.9229 260.352 87.544 260.352 90.7982Z" fill="#B96B6B"/>
<path opacity="0.05" d="M251.66 149.626C251.66 149.626 253.38 149.209 262.002 147.916C270.625 146.622 285.714 149.64 285.714 149.64" fill="black"/>
<path d="M14.7326 185.071C15.9755 189.581 20.2935 192.325 20.2935 192.325C20.2935 192.325 22.5965 187.756 21.3536 183.246C20.1108 178.736 15.7927 175.993 15.7927 175.993C15.7927 175.993 13.4897 180.561 14.7326 185.071Z" fill="#FFB890"/>
</g>
<defs>
<clipPath id="clip0">
<rect width="299" height="306.996" fill="white"/>
</clipPath>
</defs>
</svg>
